<svg width="60" height="18" viewBox="0 0 60 18" fill="none" xmlns="http://www.w3.org/2000/svg">
<path d="M15.7 6.525H21.6267V0H26.5V17.6657H21.6267V10.6586H15.7V6.525ZM0 18V0.334286H5.76L8.66 5.73428C9.75321 7.73599 10.7108 9.80389 11.5267 11.925H11.6133C11.3467 9.45643 11.2267 6.98143 11.2533 4.50643V0.334286H15.72V18H10.5533L7.5 12.1307C6.34 10.0543 5.3 7.92 4.37333 5.73428H4.30667C4.41333 8.13857 4.46667 10.7936 4.46667 13.6479V18H0Z" fill="white"/>
<path d="M29.2002 0.0449219H30.9669L34.6069 5.73421V0.0449219H35.9402V7.69492H34.2735L30.5535 1.79992V7.67564H29.2002V0.0449219Z" fill="white"/>
<path d="M41.1002 4.57705C41.1084 4.4132 41.0802 4.24955 41.0174 4.09707C40.9547 3.9446 40.8589 3.80682 40.7364 3.69297C40.6139 3.57913 40.4676 3.49185 40.3073 3.43699C40.147 3.38214 39.9763 3.36097 39.8068 3.37491C39.4632 3.37147 39.1321 3.49938 38.886 3.73068C38.6399 3.96198 38.4988 4.27784 38.4935 4.60919L41.1002 4.57705ZM38.5002 5.55419C38.5174 5.89012 38.6699 6.20631 38.9251 6.43559C39.1803 6.66487 39.5181 6.78915 39.8668 6.78205C40.4202 6.79491 40.9468 6.52491 41.2535 6.08133L42.1668 6.78848C41.9164 7.11182 41.5885 7.37191 41.2112 7.54654C40.8339 7.72117 40.4184 7.80516 40.0002 7.79133C39.6314 7.79842 39.2649 7.73328 38.923 7.59985C38.5811 7.46643 38.2708 7.26749 38.0109 7.01508C37.751 6.76267 37.5469 6.46204 37.411 6.13137C37.2751 5.80071 37.2102 5.44689 37.2202 5.09133C37.2063 4.73481 37.2686 4.37934 37.4031 4.04699C37.5376 3.71464 37.7416 3.4125 38.0022 3.15932C38.2629 2.90614 38.5748 2.70732 38.9185 2.57521C39.2622 2.4431 39.6303 2.38051 40.0002 2.39133C41.4268 2.39133 42.3935 3.40705 42.3935 5.21348V5.57348L38.5002 5.55419Z" fill="white"/>
<path d="M44.8198 4.90526L43.0665 2.50741H44.6198L45.6331 4.06312L46.7331 2.50098H48.1931L46.4598 4.89883L48.5065 7.68883H46.9531L45.6265 5.83741L44.2931 7.70169H42.7798L44.8198 4.90526Z" fill="white"/>
<path d="M48.5601 3.60007V2.50722H49.6067V1.00293H50.8601V2.50079H52.2601V3.60007H50.8867V5.88222C50.8867 6.3965 51.0267 6.71793 51.5934 6.71793C51.8334 6.73079 52.0734 6.67936 52.2867 6.55721V7.65007C51.9534 7.77222 51.6001 7.82364 51.2467 7.79793C49.9067 7.79793 49.5801 7.20007 49.5801 5.96579V3.60007H48.5601Z" fill="white"/>
<path d="M29.2002 9.77148H30.5335V12.8251H34.0469V9.77148H35.3802V17.4215H34.0469V14.0529H30.5335V17.4279H29.2002V9.77148Z" fill="white"/>
<path d="M40.5134 14.3164C40.5254 14.1502 40.5002 13.9834 40.4393 13.8275C40.3783 13.6716 40.2832 13.5303 40.1604 13.4131C40.0376 13.2959 39.89 13.2056 39.7277 13.1485C39.5654 13.0914 39.3923 13.0687 39.22 13.0821C38.8764 13.0787 38.5453 13.2066 38.2992 13.4379C38.0531 13.6692 37.912 13.985 37.9067 14.3164H40.5134ZM37.9067 15.2807C37.9239 15.6178 38.0759 15.9353 38.3307 16.1666C38.5856 16.398 38.9234 16.5251 39.2734 16.5214C39.5404 16.5172 39.8023 16.4506 40.0369 16.3275C40.2714 16.2043 40.4715 16.0282 40.62 15.8142L41.5334 16.5214C41.2888 16.8487 40.966 17.1143 40.5923 17.2956C40.2186 17.4769 39.805 17.5686 39.3867 17.5628C39.0162 17.5692 38.6482 17.5026 38.3052 17.3672C37.9622 17.2318 37.6514 17.0304 37.3919 16.7753C37.1323 16.5202 36.9294 16.2168 36.7956 15.8836C36.6617 15.5503 36.5997 15.1942 36.6134 14.8371C36.5958 14.479 36.6551 14.1213 36.7875 13.7864C36.92 13.4514 37.1227 13.1464 37.3831 12.8905C37.6434 12.6347 37.9558 12.4334 38.3005 12.2993C38.6453 12.1652 39.0151 12.1013 39.3867 12.1114C40.8067 12.1114 41.7734 13.1271 41.7734 14.9335V15.2871L37.9067 15.2807Z" fill="white"/>
<path d="M46.0401 15.1072H45.7734C45.0668 15.1072 43.8934 15.1586 43.8934 15.9043C43.8934 16.38 44.3668 16.5922 44.7801 16.5922C44.9508 16.6132 45.1242 16.5969 45.2874 16.5445C45.4507 16.4921 45.5996 16.4049 45.7232 16.2895C45.8468 16.174 45.9418 16.0332 46.0013 15.8775C46.0608 15.7218 46.0832 15.5552 46.0668 15.39L46.0401 15.1072ZM46.1068 16.7143C45.9401 16.9854 45.7 17.2076 45.4122 17.3571C45.1245 17.5066 44.7999 17.5778 44.4734 17.5629C44.2425 17.5868 44.0089 17.5647 43.7871 17.4979C43.5654 17.4311 43.3603 17.321 43.1846 17.1745C43.0089 17.028 42.8663 16.8481 42.7658 16.6462C42.6652 16.4443 42.6088 16.2246 42.6001 16.0007C42.6001 14.3164 44.5334 14.2007 45.8001 14.2007H46.1268V14.0657C46.1268 13.4229 45.6401 13.0886 44.9534 13.0886C44.4468 13.0886 43.9601 13.2814 43.6001 13.6286L42.9334 12.9472C43.2144 12.6724 43.5515 12.4569 43.9232 12.3141C44.295 12.1714 44.6935 12.1045 45.0934 12.1179C47.2668 12.1179 47.2668 13.7186 47.2668 14.4514V17.4536H46.1134L46.1068 16.7143Z" fill="white"/>
<path d="M48.5933 9.25684H49.8466V17.4275H48.5933V9.25684Z" fill="white"/>
<path d="M50.6802 13.3458V12.24H51.7268V10.7422H52.9802V12.24H54.3802V13.3458H53.0068V15.6022C53.0068 16.1229 53.1535 16.4508 53.7202 16.4508C53.9602 16.4572 54.2002 16.4058 54.4068 16.2836V17.4022C54.0868 17.5308 53.7402 17.5822 53.4002 17.5758C52.0468 17.5758 51.7335 16.9779 51.7335 15.7372V13.3329L50.6802 13.3458Z" fill="white"/>
<path d="M56.6266 12.9661C56.7642 12.6991 56.9791 12.4762 57.2453 12.3245C57.5115 12.1727 57.8176 12.0986 58.1266 12.1111C59.4932 12.1111 59.9999 13.0947 59.9999 14.1554V17.434H58.7466V14.7983C58.7466 14.2004 58.7066 13.2747 57.8132 13.2747C56.9332 13.2747 56.6466 13.9047 56.6466 14.599V17.4275H55.3999V9.25684H56.6532L56.6266 12.9661Z" fill="white"/>
</svg>
